<svg viewBox="0 0 512 512" xmlns="http://www.w3.org/2000/svg">
  <!-- Background -->
  <rect x="0" y="0" width="512" height="512" rx="100" fill="#1a1a2e" />
  
  <!-- Calculator Body -->
  <rect x="80" y="80" width="352" height="352" rx="30" fill="#222" stroke="#444" stroke-width="8" />
  
  <!-- Calculator Display -->
  <rect x="100" y="100" width="312" height="80" rx="10" fill="#111" stroke="#333" stroke-width="4" />
  
  <!-- Display Content -->
  <text x="375" y="155" font-family="Arial" font-size="40" fill="#3a57e8" text-anchor="end" font-weight="bold">123.45</text>
  
  <!-- Calculator Buttons -->
  <!-- Row 1 -->
  <rect x="100" y="200" width="64" height="48" rx="8" fill="#7045af" />
  <text x="132" y="230" font-family="Arial" font-size="20" fill="white" text-anchor="middle">C</text>
  
  <rect x="182" y="200" width="64" height="48" rx="8" fill="#555" />
  <text x="214" y="230" font-family="Arial" font-size="20" fill="white" text-anchor="middle">±</text>
  
  <rect x="264" y="200" width="64" height="48" rx="8" fill="#555" />
  <text x="296" y="230" font-family="Arial" font-size="20" fill="white" text-anchor="middle">%</text>
  
  <rect x="346" y="200" width="64" height="48" rx="8" fill="#3a57e8" />
  <text x="378" y="230" font-family="Arial" font-size="20" fill="white" text-anchor="middle">÷</text>
  
  <!-- Row 2 -->
  <rect x="100" y="260" width="64" height="48" rx="8" fill="#444" />
  <text x="132" y="290" font-family="Arial" font-size="20" fill="white" text-anchor="middle">7</text>
  
  <rect x="182" y="260" width="64" height="48" rx="8" fill="#444" />
  <text x="214" y="290" font-family="Arial" font-size="20" fill="white" text-anchor="middle">8</text>
  
  <rect x="264" y="260" width="64" height="48" rx="8" fill="#444" />
  <text x="296" y="290" font-family="Arial" font-size="20" fill="white" text-anchor="middle">9</text>
  
  <rect x="346" y="260" width="64" height="48" rx="8" fill="#3a57e8" />
  <text x="378" y="290" font-family="Arial" font-size="20" fill="white" text-anchor="middle">×</text>
  
  <!-- Row 3 -->
  <rect x="100" y="320" width="64" height="48" rx="8" fill="#444" />
  <text x="132" y="350" font-family="Arial" font-size="20" fill="white" text-anchor="middle">4</text>
  
  <rect x="182" y="320" width="64" height="48" rx="8" fill="#444" />
  <text x="214" y="350" font-family="Arial" font-size="20" fill="white" text-anchor="middle">5</text>
  
  <rect x="264" y="320" width="64" height="48" rx="8" fill="#444" />
  <text x="296" y="350" font-family="Arial" font-size="20" fill="white" text-anchor="middle">6</text>
  
  <rect x="346" y="320" width="64" height="48" rx="8" fill="#3a57e8" />
  <text x="378" y="350" font-family="Arial" font-size="20" fill="white" text-anchor="middle">−</text>
  
  <!-- Row 4 -->
  <rect x="100" y="380" width="64" height="48" rx="8" fill="#444" />
  <text x="132" y="410" font-family="Arial" font-size="20" fill="white" text-anchor="middle">1</text>
  
  <rect x="182" y="380" width="64" height="48" rx="8" fill="#444" />
  <text x="214" y="410" font-family="Arial" font-size="20" fill="white" text-anchor="middle">2</text>
  
  <rect x="264" y="380" width="64" height="48" rx="8" fill="#444" />
  <text x="296" y="410" font-family="Arial" font-size="20" fill="white" text-anchor="middle">3</text>
  
  <rect x="346" y="380" width="64" height="48" rx="8" fill="#3a57e8" />
  <text x="378" y="410" font-family="Arial" font-size="20" fill="white" text-anchor="middle">+</text>
</svg>